<?xml version="1.0" encoding="utf-8"?>
<!-- Generator: Adobe Illustrator 24.0.1, SVG Export Plug-In . SVG Version: 6.00 Build 0)  -->
<svg version="1.1" id="katman_1" xmlns="http://www.w3.org/2000/svg" xmlns:xlink="http://www.w3.org/1999/xlink" x="0px" y="0px"
	 viewBox="0 0 310.7 109.9" style="enable-background:new 0 0 310.7 109.9;" xml:space="preserve">
<style type="text/css">
	.st0{fill:#7360D4;}
	.st1{opacity:0.6;fill:url(#SVGID_1_);enable-background:new    ;}
	.st2{opacity:0.6;fill:url(#SVGID_2_);enable-background:new    ;}
	.st3{opacity:0.6;fill:url(#SVGID_3_);enable-background:new    ;}
	.st4{fill:url(#SVGID_4_);}
	.st5{opacity:0.6;fill:url(#SVGID_5_);enable-background:new    ;}
	.st6{fill:url(#SVGID_6_);}
</style>
<g id="katman_2_1_">
	<g id="katman_1-2">
		<path class="st0" d="M64,24.2h-8.9c-1.2,0-2.3,0.7-2.8,1.8L33.5,67.9L14.6,26c-0.5-1.1-1.6-1.8-2.8-1.8H3c-1.7,0-3,1.3-3,3
			c0,0.5,0.1,0.9,0.3,1.3l23.3,51.6c1.8,3.9,5.7,6.4,10,6.4l0,0c4.3,0,8.2-2.5,10-6.5l23.2-51.6c0.7-1.5,0.1-3.3-1.4-4
			C64.9,24.3,64.4,24.2,64,24.2z"/>
		<path class="st0" d="M229.6,67.9c5.3,4.7,13,5.8,19.4,2.8c4.4-2,7.7-5.8,9.3-10.3l13.4,4.9c-5.9,16.7-24.1,25.4-40.8,19.6
			c-8.1-2.9-14.8-8.9-18.4-16.7c-7.6-16-0.8-35.1,15.2-42.6c13.7-6.5,30-2.5,39.2,9.5c2.9,3.8,5,8.1,6,12.8L229.6,67.9z M253.4,41.2
			c-7.4-6.5-18.6-5.9-25.2,1.5c-3,3.4-4.7,7.9-4.5,12.4L253.4,41.2z"/>
		
			<linearGradient id="SVGID_1_" gradientUnits="userSpaceOnUse" x1="46.0269" y1="28.2959" x2="38.5469" y2="12.4659" gradientTransform="matrix(1 0 0 -1 0 85.8898)">
			<stop  offset="0.42" style="stop-color:#7360D4"/>
			<stop  offset="0.49" style="stop-color:#6E5CC9"/>
			<stop  offset="0.62" style="stop-color:#6052AC"/>
			<stop  offset="0.79" style="stop-color:#4A427C"/>
			<stop  offset="0.91" style="stop-color:#393558"/>
		</linearGradient>
		<path class="st1" d="M33.5,67.9c0,0,4.4,9.4,13.7,4.1l4.7-10.4l-13.1-5.5L33.5,67.9z"/>
		<path class="st0" d="M42.7,73c-3.7,0-7.2-1.9-9.2-5.1c0,0,0-0.1,0-0.1L14.6,26c-0.5-1.1-1.6-1.8-2.8-1.8H3c-1.7,0-3,1.3-3,3
			c0,0.5,0.1,0.9,0.3,1.3l23.3,51.6c2.5,5.5,9.1,7.9,14.6,5.4c2.4-1.1,4.3-3,5.4-5.4l3.6-8.1C45.7,72.7,44.2,73,42.7,73z"/>
		<path class="st0" d="M97.5,22.5c-17.7,0-32,14.3-32,32s14.3,32,32,32s32-14.3,32-32c0,0,0,0,0,0C129.5,36.9,115.2,22.5,97.5,22.5z
			 M97.5,72.4c-9.8,0-17.8-8-17.8-17.8c0-9.8,8-17.8,17.8-17.8s17.8,8,17.8,17.8S107.3,72.4,97.5,72.4z"/>
		<path class="st0" d="M138.5,37.2h8c1.7,0,3.1,1.4,3.1,3.1v41.7c0,1.7-1.4,3.1-3.1,3.1h-8c-1.7,0-3.1-1.4-3.1-3.1V40.2
			C135.5,38.5,136.8,37.2,138.5,37.2z"/>
		<path class="st0" d="M126.4,5.6h4c0.8,0,1.5,0.7,1.5,1.5v12.5c0,0.8-0.7,1.5-1.5,1.5h-4c-0.8,0-1.5-0.7-1.5-1.5V7.1
			C124.9,6.3,125.6,5.6,126.4,5.6z"/>
		<path class="st0" d="M140.5,0h4c0.8,0,1.5,0.7,1.5,1.5v23.7c0,0.8-0.7,1.5-1.5,1.5h-4c-0.8,0-1.5-0.7-1.5-1.5V1.5
			C139,0.7,139.7,0,140.5,0z"/>
		<path class="st0" d="M154.6,5.6h4c0.8,0,1.5,0.7,1.5,1.5v12.5c0,0.8-0.7,1.5-1.5,1.5h-4c-0.8,0-1.5-0.7-1.5-1.5V7.1
			C153.1,6.3,153.8,5.6,154.6,5.6z"/>
		<path class="st0" d="M282.3,24.2h8c1.7,0,3,1.4,3,3v54.6c0,1.7-1.4,3-3,3h-8c-1.7,0-3-1.4-3-3V27.3
			C279.2,25.6,280.6,24.2,282.3,24.2z"/>
		<path class="st0" d="M307.3,22.8c-16,2-28,15.6-28,31.7h14.2c0-9.6,7.6-17.5,17.2-17.8V25.9c0-1.7-1.4-3.1-3-3.1
			C307.5,22.8,307.4,22.8,307.3,22.8z"/>
		
			<linearGradient id="SVGID_2_" gradientUnits="userSpaceOnUse" x1="115.5398" y1="11.7875" x2="78.3698" y2="15.6075" gradientTransform="matrix(1 0 0 -1 0 85.8898)">
			<stop  offset="0.42" style="stop-color:#7360D4"/>
			<stop  offset="0.49" style="stop-color:#6E5CC9"/>
			<stop  offset="0.62" style="stop-color:#6052AC"/>
			<stop  offset="0.79" style="stop-color:#4A427C"/>
			<stop  offset="0.91" style="stop-color:#393558"/>
		</linearGradient>
		<path class="st2" d="M108.2,84.7L95.8,72.3c-8.5-0.8-15.2-7.5-16-16l-0.1-0.1c0,12.8,7.1,24.5,18.5,30.3
			C101.6,86.5,104.9,85.8,108.2,84.7z"/>
		
			<linearGradient id="SVGID_3_" gradientUnits="userSpaceOnUse" x1="43.0444" y1="-3.1567" x2="19.3051" y2="-3.1567" gradientTransform="matrix(0.9059 -0.4236 -0.4236 -0.9059 204.5812 68.3248)">
			<stop  offset="0.47" style="stop-color:#7360D4"/>
			<stop  offset="0.54" style="stop-color:#6E5CC9"/>
			<stop  offset="0.66" style="stop-color:#6052AC"/>
			<stop  offset="0.82" style="stop-color:#4A427C"/>
			<stop  offset="0.93" style="stop-color:#393558"/>
		</linearGradient>
		<path class="st3" d="M225.3,62.1c1,2.2,2.5,4.2,4.3,5.8l20.2-9.4l-6-12.8l-20.2,9.4C223.7,57.5,224.3,59.9,225.3,62.1z"/>
		
			<linearGradient id="SVGID_4_" gradientUnits="userSpaceOnUse" x1="275.1068" y1="52.2935" x2="287.2764" y2="45.2579" gradientTransform="matrix(1 0 0 -1 0 85.8898)">
			<stop  offset="0.47" style="stop-color:#7360D4"/>
			<stop  offset="0.54" style="stop-color:#6E5CC9"/>
			<stop  offset="0.66" style="stop-color:#6052AC"/>
			<stop  offset="0.82" style="stop-color:#4A427C"/>
			<stop  offset="0.93" style="stop-color:#393558"/>
		</linearGradient>
		<path class="st4" d="M279.2,54.5V27.3c0-1.7,1.3-3,3-3h8.1c1.7,0,3,1.3,3,3V28C284.5,34,279.2,43.9,279.2,54.5z"/>
		<path class="st0" d="M180.2,86.6c11.9,0,24.6-4.9,24.6-18.8c0-13.5-11.6-16.5-20.9-19c-6.3-1.7-11.7-3.1-11.7-8
			c0-3.1,2.2-6.6,8.5-6.6c3.9-0.1,7.6,1.7,9.9,4.9l11.7-6.3c-5-6.6-12.5-10.2-21.6-10.2c-10.6,0-23,4.9-23,18.8
			c0,11.5,9.4,15,20.8,18.2c6.3,1.8,11.8,3.3,11.8,8.1c0,2.1-1,7-10.1,7c-5.6,0-10-2.3-12.6-6.6l-11.9,6.8
			C160.5,82.6,168.7,86.6,180.2,86.6z"/>
		
			<linearGradient id="SVGID_5_" gradientUnits="userSpaceOnUse" x1="180.2398" y1="8.2299" x2="193.9498" y2="20.38" gradientTransform="matrix(1 0 0 -1 0 85.8898)">
			<stop  offset="0.39" style="stop-color:#7360D4"/>
			<stop  offset="0.51" style="stop-color:#6858BC"/>
			<stop  offset="0.76" style="stop-color:#4B437F"/>
			<stop  offset="0.91" style="stop-color:#393558"/>
		</linearGradient>
		<path class="st5" d="M178.4,59.5L178.4,59.5c6.3,1.8,11.8,3.3,11.8,8.1c0,2.1-1,7-10,7v11.9c8.4,0,17.1-2.5,21.6-8.8
			C197.4,68.2,188.7,61.4,178.4,59.5z"/>
		
			<linearGradient id="SVGID_6_" gradientUnits="userSpaceOnUse" x1="142.4229" y1="22.3496" x2="142.7129" y2="51.9096" gradientTransform="matrix(1 0 0 -1 0 85.8898)">
			<stop  offset="0.18" style="stop-color:#7360D4"/>
			<stop  offset="0.3" style="stop-color:#6E5CC9"/>
			<stop  offset="0.51" style="stop-color:#6052AC"/>
			<stop  offset="0.78" style="stop-color:#4A427C"/>
			<stop  offset="0.97" style="stop-color:#393558"/>
		</linearGradient>
		<path class="st6" d="M138.5,62.5h8c1.7,0,3.1-0.9,3.1-2V44.7c-4.4,2.5-9.7,2.5-14.1,0l0,0v15.8C135.5,61.6,136.8,62.5,138.5,62.5z
			"/>
	</g>
</g>
</svg>
